<svg xmlns="http://www.w3.org/2000/svg" viewBox="1157.5 80.1 129.3 123.2"><path d="M1160.7 82.6 L1160.0 154.2 L1166.2 154.4 L1166.3 192.1 L1191.7 192.1 L1191.7 199.6 L1213.5 199.6 L1213.7 187.8 L1233.2 188.2 L1233.2 200.0 L1282.4 200.8 L1284.3 83.8 L1234.5 83.8 L1234.3 98.8 L1224.7 98.9 L1224.7 83.6Z" fill="#fff" stroke="#3f3f46" stroke-width="1.3" stroke-linejoin="round" vector-effect="non-scaling-stroke"/><path d="M1237.4 118.8 L1211.4 118.8 L1211.4 136.3 L1194.8 136.3 L1194.8 144.8 L1190.4 144.8 L1190.4 154.4 L1223.7 154.8 L1223.7 164.6 L1236.8 164.6Z" fill="#d4d4d8" stroke="#a1a1aa" stroke-width="0.4"/><path d="M1224.2 84.1 L1161.2 83.2 L1160.4 153.7 L1190.2 154.1 L1190.2 144.7 L1194.6 144.6 L1194.7 136.1 L1211.1 136.1 L1211.2 118.7 L1224.0 118.6Z" fill="#e53935" fill-opacity="0.25" stroke="#e53935" stroke-width="2.4" stroke-linejoin="round" vector-effect="non-scaling-stroke"/></svg>